<?xml version="1.0" encoding="utf-8"?>
<!-- Generator: Adobe Illustrator 16.0.0, SVG Export Plug-In . SVG Version: 6.00 Build 0)  -->
<!DOCTYPE svg PUBLIC "-//W3C//DTD SVG 1.1//EN" "http://www.w3.org/Graphics/SVG/1.1/DTD/svg11.dtd">
<svg version="1.1" id="Calque_1" xmlns="http://www.w3.org/2000/svg" xmlns:xlink="http://www.w3.org/1999/xlink" x="0px" y="0px"
	 width="2500px" height="2500px" viewBox="0 0 2500 2500" enable-background="new 0 0 2500 2500" xml:space="preserve">
<g>
	<g>
		<path fill-rule="evenodd" clip-rule="evenodd" fill="#FEFEFE" d="M10.777,1260.786c0-404.095,0.474-808.189-0.905-1212.284
			C9.761,16.374,16.323,9.839,48.487,9.892c808.184,1.126,1616.374,1.126,2424.564,0c32.111-0.042,38.656,6.43,38.615,38.589
			c-1.132,808.189-1.132,1616.379-0.006,2424.569c0.042,32.106-6.424,38.662-38.589,38.61c-808.189-1.126-1616.379-1.126-2424.569,0
			c-32.106,0.042-38.747-6.409-38.636-38.59C11.256,2068.976,10.777,1664.881,10.777,1260.786z"/>
		<path fill-rule="evenodd" clip-rule="evenodd" fill="#D51A23" d="M548.054,1146.114c-24.472-18.405-65.645,4.767-65.397-21.078
			c0.321-33.769,39.457-19.447,62.15-20.32c25.782-1,30.807-20.342,41.493-36.137c50.512-74.705,121.318-114.493,211.029-119.976
			c17.516-1.073,41.43-0.779,40.01,23.383c-1.363,23.13-21.278,28.792-44.393,26.045c-83.019-9.829-92.689-2.642-124.749,65.034
			c-16.411,34.653-8.324,43.587,27.718,41.841c14.28-0.695,41.656-12.081,41.42,14.048c-0.21,23.583-27.224,20.384-43.588,17.722
			c-47.123-7.672-70.59,13.869-88.727,55.5c-29.97,68.791-65.607,135.098-98.898,202.437c-4.756,9.618-7.771,21.162-15.054,28.276
			c-17.658,17.258-43.693,25.098-63.145,14.343c-17.132-9.471,2.936-28.476,8.577-41.482
			C472.729,1312.203,510.613,1229.385,548.054,1146.114z"/>
		<path fill-rule="evenodd" clip-rule="evenodd" fill="#D51A23" d="M1273.799,1074.482c1.789-0.032,3.615-0.252,5.372,0
			c33.58,4.756,82.556-9.418,90.09,36.242c8.329,50.512-42.692,62.087-78.771,71.727c-49.854,13.312-102.087,17.9-153.425,25.371
			c-19.079,2.778-43.083-1.504-43.398,27.224c-0.315,28.423,22.736,33.706,44.682,35.937
			c56.937,5.809,109.306-12.796,161.491-31.959c10.817-3.968,24.735-18.079,32.943-2.768c10.097,18.847-11.392,22.078-22.246,27.066
			c-72.227,33.18-146.553,58.615-227.73,43.282c-75.152-14.195-94.731-68.822-47.981-129.899
			C1081.76,1115.375,1176.09,1075.04,1273.799,1074.482z"/>
		<path fill-rule="evenodd" clip-rule="evenodd" fill="#D51A23" d="M1679.267,1244.475
			c-81.166,49.754-163.227,80.335-256.531,60.677c-66.103-13.922-84.755-64.182-46.935-120.702
			c52.943-79.125,209.478-134.099,298.862-104.507c15.274,5.051,31.707,11.449,33.964,30.328
			c2.657,22.236-10.918,37.463-28.013,48.344c-51.396,32.727-110.753,38.462-168.952,47.628
			c-10.565,1.663-21.431,1.347-32.144,2.146c-17.705,1.326-37.505-0.505-38.162,26.077c-0.652,26.529,18.458,33.032,38.437,35.853
			c51.322,7.24,98.908-7.082,145.974-26.234C1639.799,1238.372,1654.837,1218.819,1679.267,1244.475z"/>
		<path fill-rule="evenodd" clip-rule="evenodd" fill="#3F3E3F" d="M1001.703,1454.668c-33.301,25.077-36.163,74.937-68.007,72.453
			c-19.116-1.495-35.059-43.577-60.43-78.399c0,47.565-0.195,82.419,0.089,117.272c0.132,16.079-2.368,27.697-23.162,26.845
			c-17.174-0.694-27.292-5.672-27.255-24.403c0.126-60.889,0.042-121.776-0.026-182.664c-0.01-11.85,3.389-22.173,16.638-23.183
			c17.4-1.326,35.968-5.283,47.875,14.364c14.717,24.288,30.413,47.976,50.286,79.146c17.495-27.676,33.243-50.343,46.587-74.347
			c12.102-21.763,31.017-22.109,50.891-19.279c24.077,3.441,17.516,23.426,17.674,38.273c0.563,53.722-0.053,107.453,0.336,161.186
			c0.132,18.511-3.888,30.286-26.276,31.055c-23.767,0.82-25.625-12.281-25.361-30.224
			C1002.051,1529.246,1001.703,1495.719,1001.703,1454.668z"/>
		<path fill-rule="evenodd" clip-rule="evenodd" fill="#3D3C3D" d="M1228.775,1594.838
			c-72.179,0.705-125.575-49.596-125.354-118.093c0.216-65.928,52.169-117.146,120.339-118.64
			c77.136-1.693,132.057,46.008,133.42,115.872C1358.549,1544.126,1305.469,1594.091,1228.775,1594.838z"/>
		<path fill-rule="evenodd" clip-rule="evenodd" fill="#3E3D3E" d="M1562.074,1501.875c0-46.902,0.447-78.588-0.174-110.242
			c-0.363-18.205,1.879-31.675,25.436-30.17c17.968,1.146,25.318,8.955,25.208,26.697c-0.374,59.015-0.11,118.04-0.126,177.065
			c0,10.955-0.332,23.088-13.207,26.087c-16.511,3.841-31.06,0.306-42.393-15.017c-28.529-38.589-58.168-76.347-98.757-113.146
			c0,30.149,0.637,60.31-0.258,90.427c-0.483,16.27,6.888,37.82-22.44,38.957c-33.695,1.295-25.029-23.319-25.324-40.978
			c-0.826-50.069-0.963-100.182,0.147-150.23c0.31-14.018-9.087-34.548,15.442-39.084c19.179-3.546,33.99,3.315,45.966,19.921
			C1497.698,1418.362,1525.317,1453.479,1562.074,1501.875z"/>
		<path fill-rule="evenodd" clip-rule="evenodd" fill="#414041" d="M1754.735,1592.449c-82.318,0.221-82.318,0.221-82.323-82.208
			c0-34.106,2.578-68.454-0.668-102.244c-3.805-39.589,12.859-50.06,49.196-47.071c32.091,2.652,64.576,0.905,96.877,0.506
			c16.906-0.211,27.119,4.577,26.94,24.098c-0.174,19.805-11.149,23.793-27.671,23.299c-16.144-0.484-32.612-1.999-48.376,0.484
			c-16.201,2.557-42.962-13.881-44.514,20.668c-1.573,35,25.208,21.33,41.92,23.477c12.359,1.59,25.087,0.422,37.652,0.316
			c14.99-0.127,27.986-0.242,28.328,21.53c0.326,20.826-10.334,23.625-26.697,23.13c-16.138-0.483-32.312-0.378-48.46,0.032
			c-15.279,0.39-32.833-4.662-33.327,21.794c-0.463,24.824,14.159,24.593,31.26,24.445c23.33-0.189,46.665,0.095,69.995,0.284
			c15.738,0.137,22.1,8.724,21.973,23.877c-0.126,15.007-6.172,23.657-22.104,23.604
			C1801.401,1592.386,1778.071,1592.449,1754.735,1592.449z"/>
		<path fill-rule="evenodd" clip-rule="evenodd" fill="#D51B24" d="M901.811,1147.461c45.45-17.879,69.128-49.849,104.912-60.867
			c19.021-5.851,37.631-14.165,56.11-1.063c12.291,8.703,10.839,21.078,4.978,33.601c-10.097,21.541-28.681,23.761-49.381,23.425
			c-94.852-1.537-125.29,76.652-167.952,138.265c-13.812,19.942-23.209,38.505-52.511,35.559
			c-27.198-2.746-42.319-7.566-24.509-38.473c19.589-33.991,37.621-68.928,54.848-104.181c5.64-11.544,21.757-24.351,7.782-37.842
			c-10.624-10.26-22.809,4.325-34.469,5.44c-18.831,1.789-37.831,39.22-52.595,9.408c-8.145-16.448,25.619-28.455,42.945-38.326
			c21.525-12.259,44.84-21.91,68.27-30.16c18.911-6.651,39.752-7.945,55.642,7.43
			C933.939,1107.146,915.507,1123.426,901.811,1147.461z"/>
		<path fill-rule="evenodd" clip-rule="evenodd" fill="#403F40" d="M1986.059,1446.196c39.636-25.298,33.974-102.918,106.811-81.618
			c-1.067,26.834-20.646,44.545-34.016,64.497c-28.345,42.293-53.453,84.544-44.271,138.718
			c3.088,18.205-6.698,25.467-25.046,25.077c-16.759-0.357-30.354-4.504-26.809-23.667c12.57-67.938-30.827-114.251-60.751-166.331
			c-6.309-10.976-31.28-25.456-8.318-38.441c15.428-8.714,38.768-8.188,51.543,14.111
			C1958.329,1401.44,1972.462,1423.771,1986.059,1446.196z"/>
		<path fill-rule="evenodd" clip-rule="evenodd" fill="#D9353D" d="M694.949,1369.682c28.671-0.011,57.347-0.453,86.002,0.189
			c12.949,0.295,26.287,3.641,25.819,20.31c-0.368,13.26-12.112,17.7-22.793,17.816c-59.12,0.652-118.25,0.62-177.371,0.063
			c-10.839-0.104-22.451-4.599-23.104-17.595c-0.842-16.637,12.428-20.278,25.445-20.583
			C637.602,1369.229,666.279,1369.682,694.949,1369.682z"/>
		<path fill-rule="evenodd" clip-rule="evenodd" fill="#3C3B3C" d="M635.082,1498.15c-21.31,0.01-42.62-0.18-63.924,0.084
			c-13.401,0.168-26.761-2.137-26.851-17.964c-0.063-12.438,11.534-16.29,23.225-16.3c44.387-0.021,88.774-0.189,133.162-0.011
			c10.845,0.053,22.883,1.547,23.662,15.27c0.973,17.132-12.244,18.836-25.356,18.878
			C677.696,1498.182,656.386,1498.129,635.082,1498.15z"/>
		<path fill-rule="evenodd" clip-rule="evenodd" fill="#DA3A41" d="M682.111,1592.092c-8.908-0.021-17.858,0.536-26.708-0.147
			c-14.228-1.095-31.254-1.347-29.534-21.721c1.315-15.627,15.569-17.363,28.455-17.553c19.594-0.294,39.194-0.41,58.783-0.115
			c14.185,0.221,31.312-0.705,31.954,19.026c0.663,20.257-16.901,19.446-30.896,20.383
			C703.526,1592.681,692.797,1592.112,682.111,1592.092z"/>
		<path fill-rule="evenodd" clip-rule="evenodd" fill="#FCF3F4" d="M1110.756,1183.682c42.972-50.627,86.575-80.703,145.737-83.124
			c13.06-0.526,28.029,1.368,31.933,14.08c4.693,15.301-7.582,28.476-20.389,33.433
			C1220.346,1166.529,1172.581,1186.26,1110.756,1183.682z"/>
		<path fill-rule="evenodd" clip-rule="evenodd" fill="#FCF4F4" d="M1457.478,1185.692c39.053-50.207,79.92-75.936,131.194-84.555
			c14.259-2.389,31.291-1.231,36.253,15.069c3.978,13.081-7.813,23.583-18.216,30.444
			C1565.027,1174.138,1517.66,1181.314,1457.478,1185.692z"/>
		<path fill-rule="evenodd" clip-rule="evenodd" fill="#FBFBFB" d="M1227.697,1405.756c46.55,1.336,76.878,30.475,75.889,72.915
			c-0.983,42.251-33.563,70.875-79.267,69.644c-38.721-1.042-71.553-36.558-67.233-76.136
			C1161.558,1431.201,1184.677,1407.145,1227.697,1405.756z"/>
	</g>
</g>
</svg>
