<?xml version="1.0" encoding="utf-8"?>
<!-- Generator: Adobe Illustrator 16.0.0, SVG Export Plug-In . SVG Version: 6.00 Build 0)  -->
<!DOCTYPE svg PUBLIC "-//W3C//DTD SVG 1.1//EN" "http://www.w3.org/Graphics/SVG/1.1/DTD/svg11.dtd" [
	<!ENTITY ns_flows "http://ns.adobe.com/Flows/1.0/">
	<!ENTITY ns_extend "http://ns.adobe.com/Extensibility/1.0/">
	<!ENTITY ns_ai "http://ns.adobe.com/AdobeIllustrator/10.0/">
	<!ENTITY ns_graphs "http://ns.adobe.com/Graphs/1.0/">
]>
<svg version="1.1" id="Calque_1" xmlns:x="&ns_extend;" xmlns:i="&ns_ai;" xmlns:graph="&ns_graphs;"
	 xmlns="http://www.w3.org/2000/svg" xmlns:xlink="http://www.w3.org/1999/xlink" xmlns:a="http://ns.adobe.com/AdobeSVGViewerExtensions/3.0/"
	 x="0px" y="0px" width="2500px" height="2500px" viewBox="0 0 2500 2500" enable-background="new 0 0 2500 2500"
	 xml:space="preserve">
<g>
	<g>
		<path fill-rule="evenodd" clip-rule="evenodd" fill="#23B7E9" d="M2502.829,1167.672c0,43.247,0,86.495,0,129.742
			c-2.448,3.938-0.643,8.291-1.202,12.414c0,4.283,0.002,8.565,0,12.846c-0.477,64.845-12.885,128.018-26.926,190.939
			c-22.759,101.98-61.164,198.202-109.608,290.381c-38.862,73.947-85.632,142.971-139.13,207.128
			c-24.617,29.523-50.051,58.504-77.549,85.522c-83.439,81.979-175.571,152.597-277.94,209.22
			c-143.307,79.267-296.29,129.424-459.115,148.998c-23.425,2.815-46.919,3.479-70.441,4.303c-5.839,0-11.669,0.004-17.502,0
			c-7.869,0.677-15.876-1.427-23.642,1.203c-30.667,0-61.333,0-91.999,0c-6.855-2.572-13.975-0.539-20.939-1.203
			c-3.21,0-6.422,0.003-9.631,0c-4.422,0-8.846,0.003-13.265,0.001c-59.977-0.733-118.823-10.391-177.269-22.89
			c-110.938-23.728-216.866-61.61-317.44-114.088c-70.532-36.804-137.137-79.728-199.576-129.212
			c-45.985-36.445-89.238-75.84-129.679-118.188c-56.295-58.949-106.245-122.919-149.878-191.969
			c-44.257-70.035-80.984-143.68-110.56-220.905c-14.477-37.802-25.723-76.714-36.998-115.616
			c-18.567-64.067-28.668-129.593-35.78-195.67c-1.632-15.162-2.46-30.517-2.04-45.863c0.622-13.813-0.818-27.552-1.16-41.329
			c0-20.514-0.003-41.018-0.001-61.516c0.317-13.792,1.782-27.562,1.161-41.373c1.075-64.672,10.625-128.354,25.041-191.192
			c16.708-72.831,38.408-144.298,68.021-213.018c38.387-89.086,86.44-172.844,144.215-250.761
			c43.593-58.792,92.613-112.988,145.801-163.281c73.702-69.69,154.912-129.336,243.269-179.126
			C772.021,83.74,922.81,33.424,1083.064,11.37c38.15-5.25,76.507-7.381,114.997-7.808c8.269,0,16.522-0.004,24.785,0
			c20.531,0,41.053-0.003,61.567-0.001c8.256,0.002,16.521-0.001,24.771,0c62.251,0.09,123.731,7.396,184.821,19.166
			c90.667,17.468,178.571,43.838,263.272,80.601c86.842,37.691,168.714,84.075,245.084,140.214
			c60.014,44.117,116.239,92.572,167.335,146.652c41.023,43.419,78.914,89.556,113.516,138.445
			c58.91,83.235,105.999,172.515,143.36,267.341c37.002,93.911,59.519,191.183,72.029,291.004c2.289,18.26,3.821,36.695,3.025,55.19
			c0,4.316,0.002,8.631,0.001,12.944C2502.187,1159.286,2500.378,1163.683,2502.829,1167.672z"/>
		<path fill-rule="evenodd" clip-rule="evenodd" fill="#FFFFFF" d="M1195.927,4.602c-104.648,5.493-207.347,22.26-307.763,52.634
			c-71.204,21.539-139.958,49.002-206.274,82.735c-48.029,24.431-94.215,51.831-138.801,82.09
			c-52.435,35.586-101.62,75.129-147.995,118.27c-23.602,21.956-45.515,45.535-67.984,68.604
			c-29.7,30.494-55.173,64.387-81.462,97.589c-21.442,27.081-39.316,56.802-58.051,85.858
			c-27.307,42.354-49.593,87.288-71.43,132.583C84.136,791.4,62.115,861.206,42.543,932.06
			c-12.884,46.644-21.05,94.073-27.738,141.82c-3.917,27.963-6.24,56.142-7.985,84.344c-1.941,4.777-0.478,9.778-0.966,14.651
			c-0.22,2.189,0.087,4.817-3.495,4.233c0-391.388,0-782.776,0-1174.749c397.873,0,795.747,0,1193.621,0
			c0.826,0.519,1.092,1.022,0.803,1.515C1196.498,4.358,1196.214,4.602,1195.927,4.602z"/>
		<path fill-rule="evenodd" clip-rule="evenodd" fill="#FFFFFF" d="M6.817,1306.867c4.392,68.665,12.931,136.856,29.712,203.576
			c17.72,70.451,38.542,140.16,68.808,206.423c21.035,46.051,42.528,92.055,69.406,135.099
			c22.455,35.96,44.465,72.319,70.611,105.791c20.54,26.296,40.456,53.17,62.958,77.845c24.616,26.995,49.349,53.936,75.972,79.003
			c43.806,41.248,89.814,79.938,138.972,114.626c67.242,47.45,138.317,88.425,213.536,121.985
			c88.921,39.675,181.246,68.733,276.837,87.178c34.279,6.613,68.777,12.104,103.608,15.182c15.241,1.347,30.45,3.057,45.674,4.603
			c0.845,0.47,1.132,0.95,0.865,1.443c-0.27,0.498-0.542,0.748-0.82,0.748c-386.67,0-773.339,0-1160.596,0
			c0-390.797,0-781.594,0-1172.391c5.484-0.153,3.041,4.096,3.439,6.53C6.463,1298.58,4.981,1302.858,6.817,1306.867z"/>
		<path fill-rule="evenodd" clip-rule="evenodd" fill="#FFFFFF" d="M2500.841,1141.613c-4.114-56.812-12.937-112.956-24.723-168.621
			c-10.656-50.337-23.87-100.075-41.915-148.273c-21.479-57.373-44.949-114.021-74.811-167.626
			c-19.475-34.959-39.063-69.987-62.098-102.792c-23.91-34.049-47.963-68.06-74.882-99.842
			c-43.205-51.011-89.438-99.122-140.043-142.887c-44.901-38.832-92.156-74.618-142.011-106.84
			c-44.893-29.016-91.488-55.139-139.75-78.14c-83.929-39.998-171.232-70.474-261.904-91.111
			c-47.451-10.8-95.358-18.908-143.78-24.145c-27.714-2.998-55.509-4.642-83.274-6.817c-0.868-0.447-1.168-0.916-0.904-1.408
			c0.268-0.501,0.541-0.753,0.821-0.753c396.886,0,793.773,0,1191.262,0c0,379.789,0,759.577,0,1139.365
			C2502.102,1142.849,2501.436,1142.874,2500.841,1141.613z"/>
		<path fill-rule="evenodd" clip-rule="evenodd" fill="#FFFFFF" d="M1342.34,2458.234c79.617-5.945,158.167-18.21,235.424-38.691
			c73.065-19.372,143.874-44.727,212.349-76.809c46.314-21.698,91.119-45.992,134.464-73.136
			c51.366-32.17,100.09-67.813,146.275-107.078c50.093-42.589,96.422-88.763,139.385-138.576
			c24.69-28.626,47.039-58.87,69.492-89.157c25.803-34.803,47.484-72.096,69.309-109.406
			c29.661-50.707,52.563-104.411,74.533-158.711c30.2-74.641,49.768-152.055,63.009-231.219
			c4.981-29.779,9.037-59.717,13.184-89.629c1.021-7.36,0.749-14.9,1.071-22.357c0.602-1.253,1.27-1.227,1.995-0.104
			c0,379.002,0,758.005,0,1137.007c-386.865,0-773.73,0-1160.596,0c-0.834-0.518-1.096-1.005-0.787-1.466
			C1341.744,2458.458,1342.04,2458.234,1342.34,2458.234z"/>
		<path fill-rule="evenodd" clip-rule="evenodd" fill="#90D0F2" d="M1285.798,4.429c-21.336,0.023-42.671,0.046-64.007,0.069
			c-0.722-0.523-0.941-1.015-0.661-1.475c0.27-0.442,0.535-0.665,0.798-0.665c21.23,0,42.46,0,63.691,0
			c0.765,0.398,1.045,0.837,0.844,1.318C1286.254,4.178,1286.033,4.429,1285.798,4.429z"/>
		<path fill-rule="evenodd" clip-rule="evenodd" fill="#8FD0F1" d="M4.792,1200.762c0.008,21.18,0.016,42.36,0.023,63.54
			c-0.778,1.194-1.597,1.224-2.457,0.087c0-21.23,0-42.461,0-63.691C3.201,1199.569,4.012,1199.591,4.792,1200.762z"/>
		<path fill-rule="evenodd" clip-rule="evenodd" fill="#C6E5F7" d="M4.792,1200.762c-0.811-0.021-1.622-0.043-2.433-0.064
			c0-7.863,0-15.727,0-23.589c2.986-2.576,2.099-6.126,2.353-9.386c0.254-3.268-0.65-6.789,2.109-9.499
			C8.101,1172.496,5.9,1186.603,4.792,1200.762z"/>
		<path fill-rule="evenodd" clip-rule="evenodd" fill="#C7E5F7" d="M2.359,1264.389c0.818-0.029,1.637-0.058,2.456-0.086
			c1.053,14.17,3.33,28.282,2.002,42.564c-2.756-2.717-1.849-6.236-2.099-9.507c-0.249-3.26,0.65-6.815-2.359-9.383
			C2.359,1280.115,2.359,1272.251,2.359,1264.389z"/>
		<path fill-rule="evenodd" clip-rule="evenodd" fill="#C6E5F7" d="M1221.928,2.359c0.006,0.718-0.04,1.432-0.137,2.141
			c-8.622,0.033-17.243,0.068-25.864,0.102c0.052-0.748,0.069-1.495,0.052-2.243C1204.629,2.359,1213.278,2.359,1221.928,2.359z"/>
		<path fill-rule="evenodd" clip-rule="evenodd" fill="#C8E6F8" d="M1285.798,4.429c-0.099-0.687-0.157-1.377-0.179-2.07
			c8.649,0,17.299,0,25.948,0c0.004,0.722,0.032,1.443,0.083,2.162C1303.033,4.489,1294.415,4.459,1285.798,4.429z"/>
		<path fill-rule="evenodd" clip-rule="evenodd" fill="#74C7EF" d="M1299.773,2460.368c7.594-4.63,15.873-1.569,23.83-2.12
			c0.644,0.551,0.822,1.049,0.537,1.493c-0.268,0.417-0.527,0.627-0.778,0.627
			C1315.499,2460.368,1307.636,2460.368,1299.773,2460.368z"/>
		<path fill-rule="evenodd" clip-rule="evenodd" fill="#75C8EF" d="M1186.457,2458.107c7.125,0.572,14.591-2.068,21.318,2.261
			c-7.077,0-14.153,0-21.23,0c-0.803-0.473-1.082-0.963-0.842-1.478C1185.947,2458.369,1186.197,2458.107,1186.457,2458.107z"/>
		<path fill-rule="evenodd" clip-rule="evenodd" fill="#C2E3F7" d="M1323.362,2460.368c0.021-0.714,0.102-1.422,0.239-2.122
			c6.247-0.002,12.493-0.008,18.738-0.013c-0.068,0.711-0.104,1.421-0.106,2.135
			C1335.943,2460.368,1329.653,2460.368,1323.362,2460.368z"/>
		<path fill-rule="evenodd" clip-rule="evenodd" fill="#DAEDFA" d="M1162.955,2460.368c0-0.73-0.014-1.462-0.044-2.192
			c4.691,0.041,9.383,0.082,14.075,0.122c0.893,0.409,1.207,0.852,0.947,1.329c-0.267,0.493-0.541,0.741-0.825,0.741
			C1172.391,2460.368,1167.673,2460.368,1162.955,2460.368z"/>
		<path fill-rule="evenodd" clip-rule="evenodd" fill="#D2EAF9" d="M2500.841,1141.613c0.665,0.005,1.327,0.042,1.988,0.111
			c0,4.718,0,9.436,0,14.154c-0.82,1.196-1.494,1.062-2.041-0.224C2500.806,1150.973,2500.824,1146.293,2500.841,1141.613z"/>
		<path fill-rule="evenodd" clip-rule="evenodd" fill="#D4EBF9" d="M2502.829,1323.361c-0.665,0.061-1.33,0.095-1.996,0.104
			c-0.019-4.681-0.037-9.362-0.057-14.044c0.553-1.341,1.244-1.349,2.053-0.213
			C2502.829,1313.926,2502.829,1318.644,2502.829,1323.361z"/>
		<path fill-rule="evenodd" clip-rule="evenodd" fill="#92D1F2" d="M2500.788,1155.653c0.681,0.064,1.361,0.14,2.041,0.224
			c0,3.932,0,7.863,0,11.794C2499.238,1164.16,2500.674,1159.795,2500.788,1155.653z"/>
		<path fill-rule="evenodd" clip-rule="evenodd" fill="#94D2F2" d="M2502.829,1309.208c-0.685,0.073-1.369,0.144-2.054,0.212
			c-0.1-4.136-1.531-8.5,2.054-12.006C2502.829,1301.346,2502.829,1305.276,2502.829,1309.208z"/>
		<path fill-rule="evenodd" clip-rule="evenodd" fill="#ADDBF4" d="M1177.108,2460.368c-0.002-0.694-0.042-1.386-0.122-2.073
			c3.157-0.062,6.314-0.126,9.471-0.188c0.08,0.753,0.109,1.506,0.086,2.262C1183.399,2460.368,1180.253,2460.368,1177.108,2460.368
			z"/>
		<path fill-rule="evenodd" clip-rule="evenodd" fill="#121310" d="M1325.678,1674.516c-32.898,0.926-65.798,1.346-98.698,0.067
			c-3.891-3.119-3.494-7.614-3.825-11.883c-6.168-79.354-73.739-141.901-153.358-142.527c-27.714-0.218-53.688,5.712-78.273,18.301
			c-3.702,1.896-7.369,5.012-11.926,1.865c-25.427-32.608-48.079-66.771-62.981-105.752
			c-25.512-66.727-33.444-135.221-23.25-205.958c4.478-31.068,8.488-62.223,11.731-93.44c3.249-31.268-2.695-61.128-18.302-88.55
			c-6.777-11.91-15.133-23.009-24.863-32.727c-38.364-38.313-76.74-76.623-115.649-114.377
			c-12.959-12.576-26.178-24.909-38.718-37.894c-28.349-29.354-47.082-63.702-51.039-104.849
			c-2.744-28.525,0.02-56.79,11.854-83.099c14.064-31.267,34.467-57.976,62.748-78.057c18.865-13.394,45.024-12.318,63.441,3.041
			c22.622,18.866,44.959,38.073,67.366,57.196c28.384,24.224,56.703,48.524,85.086,72.749c2.635,2.249,5.018,5.066,10.024,5.389
			c2.538-17.553,5.143-35.166,7.621-52.795c6.884-48.978,13.707-97.964,20.569-146.944c4.902-34.988,9.156-70.083,14.89-104.935
			c10.337-62.828,41.018-115.045,87.718-157.38c40.447-36.666,88.435-59.603,142.521-68.129
			c43.988-6.935,87.721-4.755,130.491,8.782c61.594,19.495,110.933,55.373,148.452,108.328
			c27.317,38.556,41.364,81.388,47.545,127.575c6.508,48.635,13.343,97.228,20.365,145.792
			c9.043,62.529,18.856,124.944,27.221,187.577c7.898,59.139,16.667,118.162,24.914,177.255
			c7.488,53.652,13.971,107.46,22.475,160.948c5.236,32.938,9.606,65.993,14.879,98.913c9.259,57.808,8.328,115.244-8.517,171.513
			c-14.616,48.823-36.528,94.347-68.424,134.567c-4.615,5.82-9.756,11.223-14.653,16.821c-5.197,2.585-8.984-1.001-12.997-3.123
			c-76.705-40.543-171.194-13.274-214.079,62.218c-10.763,18.948-16.015,39.906-18.58,61.509
			C1328.955,1666.738,1329.191,1671.221,1325.678,1674.516z"/>
		<path fill-rule="evenodd" clip-rule="evenodd" fill="#FFFFFF" d="M856.114,1990.919c7.124-28.146,13.597-56.479,21.54-84.392
			c9.344-32.831,17.322-65.993,25.678-99.065c1.235-4.889,3.099-7.57,8.56-7.519c23.576,0.224,47.154,0.199,70.731,0.325
			c0.663,0.003,1.322,0.663,2.849,1.479c-2.762,9.123-5.513,18.45-8.41,27.734c-7.132,22.858-13.765,45.893-21.616,68.503
			c-20.981,60.437-38.515,121.954-58.05,182.841c-4.472,13.935-4.845,11.332-15.29,11.394c-18.864,0.113-37.732-0.154-56.592,0.134
			c-6.623,0.1-10.472-1.305-12.972-8.495c-6.848-19.687-11.44-39.968-17.063-59.965c-10.197-36.262-19.712-72.713-29.719-109.029
			c-0.886-3.216-0.676-7.144-4.849-10.207c-1.268,3.711-2.6,7.069-3.57,10.531c-15.57,55.519-31.069,111.058-46.65,166.574
			c-2.918,10.399-3.049,10.44-13.39,10.472c-19.651,0.059-39.302,0.082-58.952-0.014c-9.186-0.043-9.329-0.139-12.2-9.146
			c-5.959-18.701-11.346-37.596-17.693-56.162c-13.712-40.104-26.09-80.627-38.691-121.081
			c-9.922-31.854-19.794-63.723-29.591-95.614c-0.888-2.888-2.916-5.741-1.084-9.421c6.699-1.685,13.778-0.685,20.771-0.757
			c15.719-0.162,31.44-0.089,47.161-0.037c10.843,0.035,10.897,0.076,13.441,10.191c7.081,28.158,14.131,56.324,21.161,84.494
			c7.979,31.978,15.912,63.967,23.905,95.94c0.659,2.634,1.624,5.193,2.675,8.509c6.571-9.137,7.759-19.373,10.299-28.958
			c13.976-52.722,27.557-105.548,41.283-158.335c0.593-2.279,1.502-4.495,1.891-6.804c0.659-3.916,3.093-5.044,6.673-5.038
			c21.616,0.034,43.233,0.172,64.846-0.088c6.107-0.074,6.939,4.052,8.075,8.162c8.145,29.48,16.339,58.947,24.271,88.484
			c8.854,32.968,17.446,66.006,26.152,99.012C856.714,1997.391,854.14,1991.994,856.114,1990.919z"/>
		<path fill-rule="evenodd" clip-rule="evenodd" fill="#FFFFFF" d="M1222.383,1826.153c0-6.525,0.068-13.182-0.024-19.836
			c-0.062-4.433,1.944-6.354,6.387-6.337c20.037,0.079,40.074,0.08,60.111,0.013c4.355-0.015,6.611,1.709,6.464,6.225
			c-0.078,2.354,0.021,4.714,0.021,7.071c0.002,88.399,0.001,176.799,0.001,265.199c0,1.965-0.175,3.944,0.018,5.89
			c0.628,6.352-2.585,8.014-8.397,7.946c-18.856-0.217-37.719-0.252-56.574,0.017c-6.211,0.089-8.403-2.338-8.099-8.315
			c0.312-6.119,0.069-12.267,0.069-20.52c-4.854,3.555-8.007,5.653-10.927,8.037c-19.159,15.643-41.129,23.726-65.722,25.922
			c-41.167,3.677-76.555-8.822-106.675-36.723c-24.46-22.657-39.403-50.687-45.215-83.389c-7.276-40.932-1.98-80.311,20.509-115.536
			c24.374-38.18,58.478-62.849,105.205-67.054c35.2-3.167,66.915,4.84,94.318,27.823c1.796,1.507,3.757,2.839,5.758,4.061
			C1220.074,1826.93,1221.017,1826.424,1222.383,1826.153z"/>
		<path fill-rule="evenodd" clip-rule="evenodd" fill="#FFFFFF" d="M1711.031,1976.427c6.283,32.993,45.092,61.6,82.434,55.911
			c20.884-3.183,38.325-11.021,50.231-29.049c2.119-3.211,4.781-4.889,8.748-4.875c22.79,0.08,45.58,0.088,68.37,0.002
			c5.405-0.02,6.957,1.879,5.11,7.184c-10.876,31.223-29.604,56.283-58.557,72.654c-25.804,14.588-54,21.648-83.597,20.751
			c-49.092-1.486-89.241-21.115-119.816-60.332c-22.528-28.897-32.163-61.456-31.521-97.571
			c1.236-69.626,56.316-134.371,125.953-146.057c40.19-6.743,77.642,0.596,111.587,22.502
			c31.476,20.312,49.843,50.555,59.096,86.477c3.825,14.85,4.865,30.185,7.061,45.317c0.167,1.155,0.06,2.354,0.046,3.532
			c-0.249,21.946-0.354,22.052-22.055,22.052c-63.262,0-126.524-0.024-189.786,0.055
			C1720.136,1974.984,1715.752,1973.929,1711.031,1976.427z"/>
		<path fill-rule="evenodd" clip-rule="evenodd" fill="#FFFFFF" d="M1326.249,1800.988c6.355-1.773,12.231-0.912,18.005-0.956
			c16.9-0.126,33.803-0.09,50.704-0.026c9.744,0.037,9.822,0.09,13.008,9.616c10.335,30.907,19.987,62.061,31.069,92.696
			c12.553,34.707,23.92,69.796,35.727,104.745c0.722,2.138,1.859,4.135,3.605,7.948c3.852-10.827,7.221-19.96,10.351-29.173
			c6.949-20.448,13.266-41.127,20.769-61.368c14.194-38.289,26.584-77.188,39.914-115.767c1.788-5.174,3.412-8.997,10.272-8.859
			c22.002,0.44,44.017,0.206,66.026,0.294c1.069,0.004,2.137,0.591,3.797,1.081c-2.522,12.511-8.132,23.783-12.361,35.473
			c-8.816,24.369-17.503,48.821-27.438,72.742c-23.803,57.313-44.291,115.872-66.438,173.806c-3.409,8.915-3.497,8.963-13.884,8.994
			c-20.439,0.059-40.878,0.043-61.316,0.009c-11.377-0.02-11.417-0.049-15.732-11.413c-14.915-39.281-29.69-78.616-44.724-117.852
			c-18.258-47.648-36.731-95.215-55.087-142.826C1330.149,1814.015,1327.416,1807.971,1326.249,1800.988z"/>
		<path fill-rule="evenodd" clip-rule="evenodd" fill="#ED7D25" d="M1325.678,1674.516c0.604-35.229,10.275-67.771,32.574-95.142
			c38.873-47.714,89.345-68.364,150.936-61.195c23.929,2.785,45.3,12.072,65.928,23.719c15.762,9.94,29.328,22.257,40.542,37.175
			c19.919,26.502,30.466,56.324,32.22,89.395c0.232,4.397-0.521,6.859-5.421,6.556c-1.954-0.121-3.924-0.003-5.888-0.003
			c-100.504,0.001-201.008,0.006-301.513-0.021C1331.93,1674.997,1328.804,1674.684,1325.678,1674.516z"/>
		<path fill-rule="evenodd" clip-rule="evenodd" fill="#ED7D25" d="M979.597,1540.339c3.259-0.372,5.689-2.527,8.473-3.927
			c56.858-28.586,112.884-27.623,166.876,6.681c47.8,30.369,70.646,75.263,72.034,131.49c-3.13,0.146-6.26,0.42-9.39,0.421
			c-99.823,0.021-199.646,0.044-299.469-0.016c-14.053-0.008-13.741,2.238-12.344-13.413c4.087-45.807,24.16-83.096,60.831-111.193
			C970.952,1547.053,975.268,1543.688,979.597,1540.339z"/>
		<path fill-rule="evenodd" clip-rule="evenodd" fill="#6FC7F0" d="M856.114,1990.919c0.278,2.266,0.154,4.482-1.082,6.473
			c-0.544,0.876-1.284,2.188-2.446,1.136c-0.654-0.591-0.618-1.943-0.893-2.955C853.167,1994.022,854.641,1992.471,856.114,1990.919
			z"/>
		<path fill-rule="evenodd" clip-rule="evenodd" fill="#FFFFFF" d="M1484.544,1158.29c0.221,68.725-9.839,134.033-36.296,195.878
			c-15.142,35.395-34.061,69.092-61.753,96.633c-21.952,21.833-46.851,39.592-77.527,47.025
			c-42.359,10.266-80.937,0.914-115.804-24.535c-34.404-25.111-58.932-58.291-77.369-96.286
			c-25.791-53.152-40.904-109.1-45.475-168.101c-5.269-68.006-1.009-135.087,19.37-200.363
			c11.571-37.062,26.739-72.843,49.046-105.106c20.878-30.197,46.232-55.679,79.616-71.633c38.717-18.503,78.09-18.75,116.886,0.225
			c27.24,13.324,49.781,32.607,68.269,56.641c12.966,16.856,23.546,35.138,33.479,53.921c26.67,50.429,38.852,104.75,44.922,160.912
			C1483.939,1122.31,1484.106,1141.128,1484.544,1158.29z"/>
		<path fill-rule="evenodd" clip-rule="evenodd" fill="#ED7D25" d="M1275.693,653.437c-55.026,0.422-100.652-19.685-140.371-54.731
			c-4.705-4.151-9.487-8.305-13.592-13.016c-3.377-3.876-1.912-7.317,3.335-7.975c32.574-4.082,63.079-15.661,94.093-25.463
			c10.827-3.422,21.93-5.984,32.94-8.809c20.028-5.139,39.772-2.269,59.317,2.683c11.011,2.79,21.871,6.206,32.731,9.559
			c27.343,8.442,54.448,17.722,82.927,21.918c7.162,1.055,8.477,4.838,4.112,10.315c-0.968,1.214-2.255,2.178-3.423,3.227
			c-32.784,29.417-70.189,49.975-113.62,58.698C1301.058,652.472,1287.77,653.907,1275.693,653.437z"/>
		<path fill-rule="evenodd" clip-rule="evenodd" fill="#FEFEFE" d="M1410.387,452.114c-0.307,11.744-3.935,22.251-12.123,30.875
			c-15.014,15.813-39.341,15.809-54.43,0.083c-16.158-16.842-16.337-46.248,0.016-62.938c11.107-11.337,24.697-15.12,39.761-9.521
			c16.782,6.238,24.514,19.694,26.75,36.81C1410.561,448.961,1410.387,450.549,1410.387,452.114z"/>
		<path fill-rule="evenodd" clip-rule="evenodd" fill="#FEFEFE" d="M1143.629,450.607c0.125-14.368,5.239-26.902,17.598-35.055
			c22.875-15.09,50.014-5.162,58.492,21.071c5.184,16.038,2.809,31.084-7.938,44.286c-9.908,12.172-24.708,16.642-39.061,12.102
			c-16.616-5.255-25.808-16.959-28.653-33.885C1143.614,456.438,1143.769,453.646,1143.629,450.607z"/>
		<path fill-rule="evenodd" clip-rule="evenodd" fill="#22B8EB" d="M1068.307,1937.371c0.337-20.462,11.046-45.234,36.994-62.278
			c26.851-17.637,62.197-15.051,86.037,6.475c36.643,33.085,37.628,93.24,2.085,127.307c-24.302,23.292-60.778,26.528-88.763,7.876
			C1080.257,2000.485,1068.335,1977.629,1068.307,1937.371z"/>
		<path fill-rule="evenodd" clip-rule="evenodd" fill="#22B8EB" d="M1784.348,1913.511c-21.172-0.002-42.345,0.091-63.517-0.046
			c-8.991-0.058-9.979-1.368-5.845-9.495c14.062-27.635,36.068-44.2,67.7-44.923c32.365-0.739,56.598,13.158,70.745,42.995
			c1.004,2.117,1.967,4.306,2.541,6.564c0.681,2.678-0.328,4.601-3.411,4.729c-2.74,0.114-5.483,0.168-8.227,0.171
			C1824.34,1913.521,1804.344,1913.514,1784.348,1913.511z"/>
	</g>
</g>
<g>
</g>
<g>
</g>
<g>
</g>
<g>
</g>
<g>
</g>
<g>
</g>
</svg>
