<svg xmlns="http://www.w3.org/2000/svg" xmlns:xlink="http://www.w3.org/1999/xlink" width="316" height="343" viewBox="0 0 316 343">
    <defs>
        <path id="a" d="M.014.308H86.39V169.3H.014z"/>
        <path id="c" d="M.452.552h126.633v47.835H.452z"/>
        <path id="e" d="M.089.098h126.633v46.974H.089z"/>
        <path id="g" d="M.653.08h156.445v89.706H.653z"/>
        <path id="i" d="M.128.325H153.43v85.519H.128z"/>
    </defs>
    <g fill="none" fill-rule="evenodd">
        <path fill="#FF7900" d="M44.853 3.578C48.155.849 52.624-.32 58.261.074l176.474 25.572c8.137 1.179 9.174 1.705 13.255 5.373 2.72 2.444 4.519 6.24 5.396 11.389L288.658 256.1c.844 4.883.126 9.023-2.152 12.42-2.277 3.398-5.986 5.858-11.124 7.38L35.323 310.885c-5.252.45-9.067-.424-11.446-2.624-2.378-2.2-3.67-6.05-3.877-11.55L39.577 15.512c.215-5.227 1.974-9.205 5.276-11.934z"/>
        <path fill="#FFF" d="M115.387 268.736l.415 1.698c2.067-3.126 3.374-6.81 4.285-10.39 2.815-11.062 2.251-22.655 2.423-33.966.195-12.842.31-26.086-3.248-38.524-15.545 8.92-21.582 9.663-35.712 20.976-16.744 26.356-50.582 71.841-50.582 71.841l33.798 15.253 28.323-30.802c8.188-10.21 15.473-8.251 20.298 3.914M197.724 269.597l-.415 1.697c-2.067-3.125-3.374-6.809-4.285-10.39-2.815-11.06-2.251-22.654-2.423-33.965-.195-12.842-.31-26.086 3.247-38.524 15.546 8.92 21.583 9.663 35.713 20.976 16.744 26.356 50.582 71.84 50.582 71.84L248.19 296.5l-30.168-30.817c-8.189-10.21-15.473-8.251-20.298 3.914z"/>
        <g transform="translate(111.702 166.914)">
            <mask id="b" fill="#fff">
                <use xlink:href="#a"/>
            </mask>
            <path fill="#FFF" d="M76.635 52.67C74.708 44.88 74.151 36.984 73.702 29c-.246-4.38-.598-8.769-.828-13.153C65.771 11.388 58.944 6.489 52.53.95a5.774 5.774 0 0 1-.63-.642c-2.262.394-7.997 1.205-13.99 1.286-5.958 3.788-11.978 7.551-18.092 11.156-.094 3.862-.444 7.721-.955 11.55-1.01 7.565-2.612 15.034-4.157 22.503-1.174 5.672-2.15 11.39-3.669 16.984C8.997 71.305 5.983 80.36.014 85.993l4.328 84.943 1.753 50.391 66.562 2.1L86.39 76.818a99.096 99.096 0 0 1-1.786-3.25c-3.46-6.622-6.174-13.643-7.969-20.897" mask="url(#b)"/>
        </g>
        <path fill="#58BC89" d="M117.884 187.296l-10.255 66.37-.1 61.378s24.542 31.876 35.015 6.113c5.359-13.182 2.226-94.532 2.226-94.532l-7.708-50.284c-6.29 3.83-12.67 7.533-19.178 10.955M177.6 178.166l.018 3.073-2.299 51.253s-.308 83.823 3.039 93.171c6.588 18.398 22.846-3.597 22.846-3.597l1.675-67.469-8.112-65.822c-5.885-3.274-11.63-6.779-17.168-10.61"/>
        <path fill="#FFF" d="M139.728 178.04l3.695-10.02s3.082.165 3.574 1.4c.493 1.235 10.482 26.805 10.482 26.805s9.835-13.9 9.44-15.83l-1.904-12.941s4.518-2.66 5.981-.067c1.463 2.592 3.972 11.904 3.972 11.904l.984 4.396-5.766 37.9-8.983-18.182-5.551.43s-6.949 19.38-7.441 18.144c-.43-1.076-6.182-27.979-7.899-35.372-.26-1.122-.916-7.463-.584-8.567"/>
        <path fill="#62352E" d="M171.063 144.482s-2.186 27.353-2.122 34.922c.018 2.13-4.213 9.696-7.314 14.95-1.497 2.539-5.098 2.723-6.845.35l-10.86-14.754s2.085-18.99 1.103-36.418c0 0 17.242 20.55 26.038.95"/>
        <path fill="#010101" d="M178.733 182.273l-.123.645c-.162.844.427 1.795 1.306 1.922.882.128 1.75-.4 1.922-1.306l.123-.645c.162-.844-.426-1.795-1.306-1.922-.881-.127-1.75.4-1.922 1.306M179.22 198.339l-.74 3.873c-.396 2.077 2.832 2.696 3.229.616l.74-3.873c.396-2.077-2.832-2.696-3.229-.616M178.344 221.558l-.74 3.873c-.396 2.077 2.831 2.696 3.229.616l.739-3.873c.397-2.077-2.831-2.696-3.228-.616M178.125 232.948l-.74 3.874c-.396 2.076 2.831 2.696 3.228.615l.74-3.872c.397-2.078-2.831-2.697-3.228-.617M179.659 188.044l-.74 3.873c-.396 2.076 2.831 2.696 3.228.616l.74-3.873c.397-2.077-2.831-2.696-3.228-.616M178.332 208.302l-.356 5.94c-.053.892.356 1.73 1.306 1.921.784.158 1.87-.42 1.923-1.306l.356-5.938c.053-.893-.355-1.73-1.307-1.922-.784-.159-1.868.42-1.922 1.305M176.968 244.589l.152 2.705c.05.859.905 1.614 1.77 1.506.902-.112 1.56-.85 1.507-1.77l-.152-2.704c-.049-.86-.904-1.615-1.77-1.507-.902.113-1.559.85-1.507 1.77M179.198 258.36l.108 6.056c.038 2.114 3.314 1.848 3.277-.263l-.108-6.057c-.037-2.113-3.314-1.847-3.277.264M179.587 273.598c.285 1.273.109 2.555-.296 3.778-.28.843.515 1.77 1.306 1.921.967.185 1.641-.46 1.922-1.306.6-1.807.579-3.648.166-5.49-.194-.866-1.333-1.272-2.098-1-.918.325-1.195 1.227-1 2.097M180.281 287.346l.226 5.413c.088 2.112 3.365 1.85 3.276-.263-.074-1.805-.15-3.61-.225-5.414-.088-2.112-3.365-1.85-3.277.264M180.526 302.815l.666 6.196c.225 2.097 3.503 1.847 3.276-.264l-.665-6.196c-.225-2.097-3.503-1.847-3.277.264M181.82 317.108c.184 1.374.369 2.746.552 4.12.28 2.085 3.559 1.84 3.277-.264l-.552-4.12c-.28-2.085-3.559-1.84-3.277.264M185.015 327.556c1.492.622 3.114.705 4.63.102.823-.327 1.305-1.238 1-2.097-.288-.813-1.27-1.33-2.098-1-.703.28-1.406.328-2.079.046-.818-.34-1.792-.082-2.2.749-.374.759-.075 1.857.747 2.2M194.121 325.138l2.184-.921c.79-.334 1.347-1.241 1-2.098-.317-.784-1.25-1.357-2.097-1l-2.184.922c-.79.333-1.347 1.24-1.001 2.097.317.785 1.25 1.358 2.098 1M198.494 318.842l.646.123c.844.162 1.795-.426 1.922-1.305.128-.882-.4-1.75-1.306-1.922l-.645-.123c-.845-.161-1.795.427-1.923 1.306-.127.881.401 1.748 1.306 1.921M132.22 184.969l1.11 4.265c.223.859 1.313 1.279 2.097 1 .896-.317 1.226-1.235 1.002-2.097l-1.11-4.265c-.224-.86-1.313-1.279-2.098-1.001-.896.318-1.225 1.235-1 2.098M135.645 198.967l1.454 5.693c.524 2.047 3.62.941 3.1-1.097l-1.456-5.693c-.523-2.047-3.62-.942-3.098 1.097M137.938 211.174l.797 2.828c.24.854 1.301 1.284 2.098 1.001.882-.313 1.243-1.24 1-2.098l-.797-2.828c-.24-.854-1.3-1.283-2.098-1-.882.312-1.242 1.24-1 2.097M138.595 221.25l.797 2.828c.241.855 1.301 1.284 2.099 1.001.882-.313 1.242-1.24 1-2.097l-.797-2.829c-.24-.854-1.301-1.283-2.098-1-.883.312-1.243 1.24-1 2.097M139.017 231.623c.284 1.058.175 2.1-.15 3.133-.268.848.506 1.77 1.305 1.922.957.182 1.655-.456 1.923-1.306.502-1.594.451-3.243.021-4.845-.23-.857-1.308-1.28-2.098-1.001-.89.316-1.231 1.237-1 2.097M139.591 243.506l.43 4.765c.189 2.103 3.466 1.85 3.276-.264l-.43-4.765c-.189-2.102-3.466-1.849-3.276.264M140.092 258.334l.675 3.473c.168.871.815 1.583 1.77 1.507.809-.065 1.677-.894 1.506-1.77l-.674-3.474c-.169-.87-.815-1.582-1.77-1.506-.81.064-1.677.894-1.507 1.77M140.67 268.514c.175.257.35.513.523.77.484.71 1.57.965 2.283.435.715-.532.952-1.523.436-2.282l-.523-.77c-.483-.71-1.57-.965-2.282-.435-.715.532-.952 1.523-.436 2.282M140.504 277.335l-.493 2.582c-.161.844.427 1.795 1.306 1.921.882.129 1.75-.4 1.922-1.305l.493-2.582c.162-.844-.427-1.794-1.306-1.922-.882-.127-1.75.401-1.922 1.306M138.344 295.655l-.74 3.873c-.396 2.077 2.832 2.696 3.229.616l.74-3.873c.396-2.077-2.832-2.696-3.229-.616M136.562 308.488c.07.976-.202 1.86-.828 2.615-1.35 1.63 1.125 3.791 2.476 2.16a7.023 7.023 0 0 0 1.629-5.038c-.15-2.108-3.427-1.851-3.277.263M132.396 319.744c0 .002.026.434.036.274.01-.178-.05.225-.062.266.072-.227-.027.032-.08.116-.148.236.236-.248-.094.124-.047.053-.174.181-.044.068 0 0-.34.233-.228.173.127-.068-.225.084-.267.094.257-.062-.194-.008-.237-.007-.888.006-1.574.932-1.507 1.77.075.938.88 1.512 1.77 1.506 2.345-.018 4.315-2.335 3.99-4.647-.124-.879-.848-1.58-1.77-1.506-.846.067-1.631.887-1.507 1.77M124.63 321.044l-2.336-1.784c-.682-.522-1.74-.566-2.32.157-.526.657-.57 1.76.159 2.318l2.335 1.785c.682.522 1.74.566 2.32-.157.525-.658.57-1.761-.159-2.319M113.869 312.169l-1.807-1.027c-.748-.426-1.86-.032-2.201.748-.375.856-.053 1.745.748 2.2l1.807 1.027c.748.425 1.86.031 2.2-.748.376-.856.053-1.745-.747-2.2"/>
        <path fill="#D6D6D6" d="M37.886 272.159l30.165 17.254c2.304 1.42 1.948 4.569.914 7.07-1.432 3.458-2.958 6.086-6.888 8.692-5.282 3.502-24.703-10.324-33.265-16.796a6.043 6.043 0 0 1-1.644-7.752c1.481-2.669 2.422-3.817 4.208-6.395 1.673-2.416 4.008-3.614 6.51-2.073"/>
        <g transform="translate(9.816 287.828)">
            <mask id="d" fill="#fff">
                <use xlink:href="#c"/>
            </mask>
            <path fill="#725048" d="M18.995.552S-.98 28.724.535 38.946c.843 5.692 13.285 29.516 84.567-18.553 0 0 2.015 2.415 15.184 4.427 15.185 2.319 9.912 2.74 9.912 2.74s-1.054 5.904 7.803 5.693c5.87-.14 10.004-6.634 6.055-9.003 0 0 6.775-7.84.061-10.604 0 0-5.105-4.503-4.007-9.487L84.68 2.894s-36.109 15.03-46.214 17.125l5.037-3.187L18.995.552z" mask="url(#d)"/>
        </g>
        <path fill="#D6D6D6" d="M88.675 209.252l1.967 2.633c.53.71 1.42 1.073 2.248.59.7-.41 1.124-1.534.59-2.249l-1.968-2.632c-.53-.71-1.42-1.073-2.248-.59-.7.41-1.124 1.533-.59 2.248M94.415 218.741a8.377 8.377 0 0 0 2.327 4.056c1.521 1.47 3.848-.85 2.324-2.323a5.207 5.207 0 0 1-1.482-2.606c-.495-2.055-3.665-1.185-3.169.873M98.365 227.277l1.923 5.275c.719 1.971 3.896 1.12 3.17-.873l-1.924-5.275c-.718-1.97-3.895-1.12-3.169.873M102.433 239.514l1.973 4.6c.35.815 1.55.997 2.248.589.844-.493.941-1.43.59-2.248l-1.973-4.6c-.35-.815-1.55-.997-2.248-.589-.844.493-.94 1.429-.59 2.248"/>
        <path fill="#505052" d="M105.709 250.034c.477.986.565 2.029.439 3.105-.103.883.83 1.643 1.643 1.643.975 0 1.54-.757 1.644-1.643.194-1.66-.165-3.27-.888-4.764-.387-.798-1.525-1.012-2.248-.589-.816.477-.978 1.446-.59 2.248"/>
        <path fill="#D6D6D6" d="M275.225 273.02l-30.165 17.254c-2.304 1.42-1.948 4.569-.914 7.07 1.432 3.458 2.958 6.086 6.888 8.692 5.282 3.502 24.703-10.324 33.265-16.796a6.043 6.043 0 0 0 1.644-7.752c-1.481-2.669-2.422-3.817-4.208-6.395-1.673-2.415-4.008-3.614-6.51-2.073"/>
        <g transform="translate(176.12 289.142)">
            <mask id="f" fill="#fff">
                <use xlink:href="#e"/>
            </mask>
            <path fill="#725048" d="M108.179.098s19.976 28.173 18.46 38.394c-.842 5.692-13.285 29.516-84.567-18.553 0 0-2.014 2.416-15.184 4.427-15.184 2.32-9.912 2.741-9.912 2.741S18.03 33.01 9.173 32.8c-5.87-.14-10.004-6.634-6.055-9.003 0 0-6.775-7.84-.061-10.605 0 0 5.105-4.502 4.007-9.487l35.43-1.265s36.109 15.031 46.214 17.125L83.67 16.38 108.18.099z" mask="url(#f)"/>
        </g>
        <path fill="#D6D6D6" d="M224.436 210.113l-1.967 2.633c-.53.71-1.42 1.073-2.248.59-.7-.41-1.124-1.534-.59-2.249l1.967-2.632c.53-.71 1.421-1.073 2.248-.59.7.41 1.124 1.533.59 2.248M218.696 219.602a8.377 8.377 0 0 1-2.327 4.056c-1.521 1.47-3.848-.85-2.324-2.323a5.207 5.207 0 0 0 1.482-2.606c.495-2.055 3.664-1.185 3.169.873M214.746 228.138l-1.924 5.275c-.718 1.971-3.895 1.12-3.169-.873l1.924-5.275c.718-1.97 3.895-1.12 3.169.873M210.678 240.375l-1.973 4.6c-.35.815-1.55.997-2.249.589-.843-.493-.94-1.429-.59-2.248.659-1.533 1.316-3.066 1.974-4.6.35-.815 1.55-.997 2.248-.59.843.494.94 1.43.59 2.249"/>
        <path fill="#505052" d="M207.402 250.895c-.477.986-.565 2.03-.44 3.105.104.883-.829 1.643-1.643 1.643-.974 0-1.54-.757-1.643-1.643-.194-1.66.165-3.27.888-4.764.387-.798 1.525-1.012 2.248-.59.816.478.978 1.447.59 2.249"/>
        <path fill="#62352E" d="M124.14 106.12c-.365-3.782-4.41-6.513-8.197-6.21-.915.074-1.86.312-2.533.935-.883.82-1.11 2.114-1.202 3.314-.541 7.003 1.798 13.907 4.64 20.33 1.103 2.491 2.446 5.117 4.875 6.349.893.453 2.02.67 2.869.138.51-.32.837-.857 1.124-1.385a23.408 23.408 0 0 0 2.475-7.046l-4.05-16.426M185.694 109.549a18.012 18.012 0 0 1 4.201-8.024c.424-.465.905-.927 1.516-1.076.53-.128 1.09-.001 1.597.197 2.022.79 3.462 2.689 4.149 4.747.687 2.06.71 4.28.584 6.446a49.18 49.18 0 0 1-4.746 18.344c-.597 1.242-1.279 2.499-2.371 3.34-1.093.84-2.7 1.158-3.856.405-1.248-.812-1.541-2.48-1.721-3.957l.647-20.422"/>
        <path fill="#030303" d="M121.432 115.011c-1.216-15.95-9.784-66.567-7.754-70.448 3.261-6.235 27.25-21.167 42.827-21.167 13.592 0 41.555 13.795 42.828 16.838 1.028 2.457-6.713 65.294-9.826 79.991a328.76 328.76 0 0 0-50.51.165l-17.565-5.379"/>
        <path fill="#725048" d="M148.011 166.373c2.741 3.097 11.628 3.238 14.816.602 17.54-14.513 26.943-40.047 26.943-42.745 0-8.775-3.203-50.27-6.547-55.703-1.025-1.665-5.907-.114-12.354 1.437-4.805 1.157-10.48 2.312-16.073 2.136-11.377-.358-22.858-7.263-25.967-3.573 0 0-8.025 44.003-6.77 50.689.378 2.016-1.44 16.206 25.952 47.157"/>
        <path fill="#62352E" d="M174.54 139.147l-.319-.461c-.19-.284-.47-.658-.79-1.065-.679-.825-1.385-1.745-2.506-3.044 0 0 .196-.086.553-.119.357-.036.881.013 1.452.294.568.275 1.165.815 1.535 1.607.37.78.478 1.84.075 2.788M139.155 138.822c.026.027-.477-.626-.188-1.703.14-.511.489-1.064 1.037-1.399.537-.335 1.306-.407 1.886 0 0 0-.495.584-.828 1.147-.186.28-.368.546-.658.802-.282.274-.701.51-1.249 1.153M166.242 144.615l-.34.393c-.226.252-.552.635-1.019 1.063a15.18 15.18 0 0 1-4.365 2.936 13.152 13.152 0 0 1-3.422.938c-1.254.162-2.609.14-3.966-.132-2.713-.542-5.43-2.036-7.367-4.366 0 0 .154.077.438.205.284.126.7.305 1.234.509 1.067.405 2.603.92 4.474 1.243 1.872.325 4.07.436 6.483.01 2.416-.41 5.047-1.375 7.85-2.799M145.323 105.82l-1.174-.682c-.746-.423-1.807-1.054-3.146-1.496a7.759 7.759 0 0 0-2.202-.384c-.802-.025-1.672.056-2.593.151-.914.097-1.85.212-2.764.457-.91.244-1.817.62-2.542 1.313l.17-.282c.12-.179.313-.443.627-.724.612-.58 1.73-1.198 3.185-1.553.73-.184 1.516-.32 2.385-.414.867-.088 1.845-.107 2.845.136.995.239 1.95.713 2.81 1.326.865.613 1.642 1.356 2.399 2.151M179.628 105.82l-1.174-.682c-.745-.423-1.807-1.054-3.146-1.496a7.759 7.759 0 0 0-2.202-.384c-.8-.025-1.672.056-2.593.151-.913.097-1.849.212-2.764.457-.91.244-1.816.62-2.541 1.313l.169-.282c.121-.179.314-.443.628-.724.612-.58 1.73-1.198 3.185-1.553.729-.184 1.516-.32 2.384-.414.867-.088 1.845-.107 2.846.136.994.239 1.95.713 2.81 1.326.864.613 1.642 1.356 2.398 2.151M154.124 110.015c.1-.712-.92-.95-1.149-.269-.977 2.904-2.115 6.262-3.023 8.882-1.195 3.445-2.128 9.742-.814 11.056 1.315 1.314 4.191 3.976 9.962-.237 3.8-2.774-4.187-1.17-5.94-2.265-1.125-.704.009-10.354.964-17.167"/>
        <g transform="translate(75.55 246.428)">
            <mask id="h" fill="#fff">
                <use xlink:href="#g"/>
            </mask>
            <path fill="#7E7B7C" d="M147.756 89.89H9.995c-5.16 0-9.342-4.182-9.342-9.34V9.419c0-5.158 4.182-9.34 9.342-9.34h137.761c5.16 0 9.342 4.182 9.342 9.34v71.13c0 5.159-4.182 9.34-9.342 9.34" mask="url(#h)"/>
        </g>
        <g transform="translate(77.521 250.37)">
            <mask id="j" fill="#fff">
                <use xlink:href="#i"/>
            </mask>
            <path fill="#5A5A5A" d="M144.089 85.946H9.469c-5.159 0-9.341-4.181-9.341-9.339V9.664C.128 4.506 4.31.325 9.47.325h134.619c5.16 0 9.342 4.181 9.342 9.34v66.942c0 5.158-4.183 9.34-9.342 9.34" mask="url(#j)"/>
        </g>
        <path fill="#FFF" d="M170.592 292h-.986c-.001 3.368-1.624 6.436-4.332 8.706-2.704 2.264-6.484 3.69-10.677 3.688-4.194.002-7.973-1.424-10.677-3.688-2.707-2.27-4.331-5.338-4.332-8.705.001-3.368 1.625-6.436 4.332-8.706 2.704-2.263 6.483-3.69 10.677-3.689 4.193 0 7.973 1.426 10.677 3.69 2.708 2.27 4.33 5.337 4.332 8.705h1.972c.001-4.022-1.956-7.644-5.038-10.218-3.085-2.578-7.303-4.147-11.943-4.148-4.64.001-8.859 1.57-11.943 4.148-3.082 2.574-5.04 6.196-5.038 10.218-.002 4.021 1.956 7.643 5.038 10.216 3.084 2.579 7.302 4.148 11.943 4.149 4.64-.001 8.858-1.57 11.943-4.149 3.082-2.573 5.04-6.195 5.038-10.216h-.986z"/>
        <path fill="#62352E" d="M140.235 137.8c5.64 1.596 10.681 2.71 16.59 2.395 5.231-.28 11.017-1.175 15.77-3.425.477-.226.128-.92-.344-.816-2.547.562-4.836 1.384-7.437 1.81-2.852.467-5.685.896-8.576 1.01-5.468.213-10.402-.907-15.671-2.177-.78-.188-1.107.984-.332 1.203"/>
        <path fill="#725048" d="M191.39 120.46c.4-2.439.931-4.866 1.681-7.224.224-.7.644-3.19 1.575-2.295.79.759.121 3.434.115 4.425-.004.426.61.611.817.222.741-1.39 1.328-7.845-1.695-6.851-1.441.474-1.823 2.913-2.183 4.122a38.803 38.803 0 0 0-1.43 7.45c-.061.633 1.015.786 1.12.151M123.204 118.674c-.86-2.77-1.496-5.66-2.685-8.318-.564-1.262-1.504-2.868-3.058-3.02-4.073-.396-2.012 7.216-1.395 9.009.225.65 1.374.604 1.287-.174-.148-1.322-.472-2.611-.692-3.923-.102-.61-.367-1.377-.29-1.983.263-2.051 1.8-1.651 2.666-.234 1.568 2.567 2.552 6.006 3.098 8.938.13.695 1.284.397 1.07-.295"/>
        <path fill="#848484" d="M119.68 97.524l-.324-.056c-.002.01-.845 4.91-.845 9.982 0 2.132.148 4.295.578 6.152.432 1.853 1.137 3.418 2.329 4.317 1.692 1.264 4.408 2.346 7.532 3.129 3.122.78 6.647 1.252 9.93 1.253 3.074-.002 5.936-.41 8.076-1.396 1.001-.462 1.795-1.242 2.419-2.213 1.86-2.916 2.288-7.583 2.294-11.529 0-3.905-.44-7.095-.441-7.104l-.016-.113-.082-.08c-.035-.035-5.646-5.423-16.826-5.423-4.15 0-9.063.743-14.735 2.772l-.18.065-.033.188.324.056.11.31c5.607-2.005 10.442-2.733 14.514-2.733 5.481 0 9.58 1.318 12.307 2.633a20.265 20.265 0 0 1 3.062 1.803 12.884 12.884 0 0 1 .944.75l.045.041.012.012.228-.237-.325.046s.027.194.067.55c.123 1.067.368 3.572.367 6.464.001 2.596-.198 5.504-.852 7.951-.325 1.223-.764 2.33-1.338 3.223-.574.894-1.277 1.573-2.14 1.97-2 .925-4.787 1.338-7.8 1.337-3.222 0-6.702-.466-9.771-1.234-3.07-.765-5.733-1.842-7.298-3.017-.99-.736-1.673-2.157-2.083-3.94-.413-1.78-.561-3.902-.56-6.003 0-2.5.208-4.972.417-6.815a69.5 69.5 0 0 1 .288-2.221c.078-.534.129-.833.129-.834l-.323-.056.11.31-.11-.31M189.157 96.01l-.285.164.037.065c.371.667 3.402 6.37 3.397 12.57-.002 3.553-.98 7.25-3.989 10.326-1.113 1.143-3.106 2.027-5.536 2.6-2.43.577-5.292.855-8.147.855-4.3.002-8.592-.635-11.358-1.796-.992-.415-1.794-1.198-2.444-2.25-.973-1.575-1.58-3.745-1.934-6.024-.354-2.28-.46-4.667-.459-6.688a60.483 60.483 0 0 1 .183-4.667c.02-.246.033-.376.033-.377l-.327-.033.221.244.017-.016c.374-.33 7.057-6.08 19.443-6.08 3.289 0 6.982.405 11.069 1.427l.08-.32-.286.164.285-.163.08-.319c-4.138-1.034-7.885-1.446-11.228-1.446-13.005 0-19.867 6.233-19.902 6.266l-.093.085-.013.125c0 .008-.22 2.174-.22 5.11 0 2.726.187 6.112.922 9.07.367 1.48.871 2.854 1.57 3.987.697 1.132 1.597 2.03 2.75 2.511 2.903 1.213 7.245 1.845 11.611 1.847 2.899 0 5.804-.28 8.3-.872 2.494-.595 4.584-1.489 5.853-2.78 3.152-3.218 4.179-7.117 4.176-10.785-.005-6.837-3.51-12.937-3.52-12.962l-.07-.122-.136-.034-.08.319"/>
        <path fill="#FFF" d="M119.685 99.802c-.028.225-.056.463-.085.713l.19.082-.105-.795"/>
        <path fill="#764F49" d="M119.6 100.515l-.014.12c-.209 1.843-.418 4.314-.418 6.815 0 .259.002.519.007.777.594.607 1.028 1.422 1.344 2.129.23.514.439 1.036.633 1.565-.318-3.127-.797-7.011-1.362-11.324l-.19-.082m-.317 9.935a21.27 21.27 0 0 0 .446 3.003c.41 1.78 1.09 3.199 2.078 3.936-.543-2.366-1.362-4.89-2.524-6.94"/>
        <path fill="#242424" d="M124.195 96.47a51.848 51.848 0 0 0-4.222 1.299 65.181 65.181 0 0 0-.287 2.034l.104.794c.565 4.313 1.043 8.197 1.362 11.323a43.4 43.4 0 0 1 .868 2.673c.28-4.483 1.148-11.2 2.175-18.124"/>
        <path fill="#846760" d="M134.304 95.1c-2.964 0-6.332.386-10.109 1.37-1.027 6.924-1.895 13.64-2.175 18.123.352 1.196.677 2.403 1.035 3.59 1.566.863 3.69 1.638 6.054 2.227 3.07.768 6.55 1.234 9.77 1.234h.017c3.008 0 5.79-.413 7.785-1.336.863-.399 1.566-1.077 2.14-1.971.573-.893 1.013-2 1.339-3.223.653-2.447.852-5.355.851-7.951a59.07 59.07 0 0 0-.419-6.898 13.24 13.24 0 0 0-.92-.728 20.219 20.219 0 0 0-3.06-1.803c-2.729-1.314-6.826-2.633-12.308-2.634m-3.402 10.08l.17-.284c.121-.178.313-.442.627-.724.611-.58 1.73-1.198 3.185-1.551.73-.185 1.516-.32 2.385-.416.352-.035.722-.059 1.105-.059.56 0 1.146.052 1.74.196.995.24 1.95.713 2.81 1.326.865.613 1.642 1.356 2.399 2.151l-1.174-.68c-.745-.424-1.807-1.055-3.146-1.497a7.782 7.782 0 0 0-2.514-.388c-.714 0-1.479.072-2.281.155-.914.096-1.85.212-2.765.456-.91.245-1.816.622-2.54 1.315"/>
        <path fill="#764F49" d="M138.374 102.146c-.382 0-.753.024-1.106.06-.868.094-1.655.23-2.384.415-1.454.354-2.573.971-3.184 1.551a3.872 3.872 0 0 0-.629.724l-.169.283c.725-.692 1.631-1.069 2.541-1.314.915-.244 1.85-.36 2.765-.456.802-.083 1.567-.156 2.281-.156.105 0 .21.002.312.006.8.017 1.53.17 2.202.383 1.339.441 2.401 1.073 3.146 1.496l1.174.681c-.756-.795-1.534-1.538-2.399-2.151-.86-.612-1.815-1.087-2.81-1.326a7.365 7.365 0 0 0-1.74-.196"/>
        <path fill="#846760" d="M119.175 108.227c.014.75.048 1.496.108 2.223 1.162 2.05 1.98 4.573 2.524 6.939l.005.004c.359.27.776.534 1.242.791-.357-1.188-.682-2.395-1.034-3.591-.265-.9-.546-1.795-.869-2.673a24.777 24.777 0 0 0-.632-1.564c-.316-.707-.75-1.522-1.344-2.129"/>
        <path fill="#949494" d="M134.304 94.772c-4.11 0-8.985.736-14.624 2.752 0 0-2.846 16.552 1.935 20.132 3.256 2.44 10.76 4.317 17.266 4.317 3.044 0 5.867-.411 7.938-1.367 6.495-2.998 4.083-20.502 4.083-20.502s-5.53-5.332-16.598-5.332m-10.109 1.698c3.777-.984 7.145-1.37 10.11-1.37 5.48 0 9.578 1.32 12.306 2.634a20.197 20.197 0 0 1 3.062 1.803 12.663 12.663 0 0 1 .92.728l.051.433a59.27 59.27 0 0 1 .367 6.465c.001 2.596-.198 5.504-.851 7.952-.326 1.223-.766 2.33-1.339 3.222-.574.895-1.277 1.572-2.14 1.971-1.996.923-4.778 1.336-7.785 1.336h-.017c-3.22 0-6.7-.467-9.77-1.234-2.364-.59-4.488-1.364-6.054-2.226a10.475 10.475 0 0 1-1.243-.791l-.005-.004c-.988-.737-1.668-2.156-2.079-3.936a21.173 21.173 0 0 1-.445-3.003 34.603 34.603 0 0 1-.108-2.223 43.707 43.707 0 0 1-.007-.777c0-2.5.209-4.972.418-6.815l.014-.12a64.048 64.048 0 0 1 .373-2.747 51.848 51.848 0 0 1 4.222-1.298"/>
        <path fill="#764F49" d="M192.005 105.272c-.667 4.513-1.295 8.474-1.84 11.523.393-.627.722-1.27.996-1.922.16-.674.339-1.345.539-2.015.13-.432.26-1.022.443-1.623.112-.81.163-1.622.163-2.425.001-1.21-.113-2.4-.301-3.538"/>
        <path fill="#242424" d="M187.841 96.037c.782 7.936 1.38 15.96 1.692 21.681.227-.303.437-.611.633-.924.544-3.047 1.172-7.01 1.839-11.521-.753-4.558-2.68-8.272-3.066-8.977a51.486 51.486 0 0 0-1.098-.26"/>
        <path fill="#846760" d="M178.009 94.903c-11.88 0-18.513 5.29-19.366 6.013l-.022.249a61.047 61.047 0 0 0-.183 4.668c0 2.02.106 4.408.46 6.687.354 2.28.96 4.45 1.935 6.024.65 1.052 1.45 1.835 2.443 2.25 2.762 1.159 7.045 1.796 11.338 1.796h.02c2.855 0 5.717-.278 8.148-.855 2.43-.573 4.422-1.457 5.536-2.6.45-.46.853-.932 1.215-1.417-.31-5.721-.91-13.745-1.692-21.681-3.599-.807-6.878-1.134-9.832-1.134m-12.801 10.276l.169-.283c.121-.178.313-.442.628-.723.61-.58 1.73-1.198 3.185-1.553.729-.184 1.515-.32 2.384-.414.352-.036.723-.06 1.106-.06.56 0 1.145.052 1.74.196.994.239 1.95.713 2.81 1.326.864.613 1.642 1.356 2.398 2.151l-1.174-.681c-.745-.423-1.807-1.054-3.146-1.496a7.736 7.736 0 0 0-2.513-.388c-.714 0-1.48.072-2.282.155-.913.097-1.849.212-2.764.456-.91.245-1.816.622-2.541 1.314"/>
        <path fill="#764F49" d="M172.68 102.146c-.383 0-.754.024-1.106.06-.869.094-1.655.23-2.384.415-1.455.354-2.573.971-3.185 1.551a3.889 3.889 0 0 0-.628.724l-.17.283c.726-.692 1.632-1.069 2.542-1.314.915-.244 1.85-.36 2.764-.456.803-.083 1.568-.156 2.282-.156.105 0 .209.002.311.006.801.017 1.53.17 2.202.383 1.34.441 2.401 1.073 3.146 1.496l1.174.681c-.756-.795-1.534-1.538-2.398-2.151-.86-.612-1.816-1.087-2.81-1.326a7.365 7.365 0 0 0-1.74-.196"/>
        <path fill="#846760" d="M192.143 111.235c-.182.6-.314 1.191-.443 1.623-.2.67-.379 1.341-.54 2.015.499-1.19.812-2.412.983-3.638"/>
        <path fill="#949494" d="M178.009 94.574c-12.894.001-19.68 6.181-19.68 6.181s-1.78 17.58 4.82 20.342c2.835 1.187 7.152 1.822 11.485 1.822 5.753 0 11.536-1.12 13.918-3.554 8.819-9.009.605-23.354.605-23.354l-.285.163.285-.163c-4.113-1.028-7.832-1.437-11.148-1.437m-19.366 6.342c.853-.723 7.487-6.014 19.366-6.013 2.954 0 6.233.327 9.832 1.134.363.081.73.167 1.099.258.385.706 2.313 4.42 3.065 8.978.188 1.137.302 2.327.301 3.537 0 .804-.05 1.615-.163 2.425a14.587 14.587 0 0 1-.982 3.638 13.278 13.278 0 0 1-1.628 2.845c-.362.485-.766.958-1.215 1.417-1.114 1.143-3.106 2.027-5.537 2.6-2.43.577-5.291.855-8.147.855h-.02c-4.293 0-8.576-.637-11.338-1.796-.992-.415-1.794-1.198-2.443-2.25-.974-1.575-1.581-3.745-1.934-6.024-.355-2.28-.46-4.667-.46-6.687a60.483 60.483 0 0 1 .183-4.668l.021-.249"/>
        <path fill="#030303" d="M117.296 100.039c5.712-2.35 12.207-3.633 18.372-3.356 8.022.36 13.382 7.023 21.48 5.659 2.484-.418 3.77-1.959 6.125-3.088 9.299-4.459 20.745-2.624 30.304-.351 2.503.595 3.497-3.275.993-3.87-9.61-2.286-20.16-3.821-29.775-.651-2.242.74-4.414 1.733-6.363 3.071-.474.325-.984.973-1.503 1.197-1.284.553 1.85-.467.147-.303-3.892.376-5.657-.578-8.74-2.413-3.767-2.241-8.417-3.074-12.74-3.246-6.492-.258-13.42 1.044-19.432 3.518-2.352.968-1.251 4.814 1.132 3.833"/>
        <path fill="#030303" d="M165.946 93.236c2.632-3.792 9.724-5.558 13.655-2.736 1.29.926 2.523-1.21 1.244-2.128-5.12-3.676-13.643-1.256-17.027 3.62-.907 1.306 1.229 2.54 2.128 1.244M129.612 91.031c4.682-2.691 10-2.095 13.901 1.635 1.146 1.097 2.892-.643 1.743-1.742-4.698-4.493-11.25-5.261-16.888-2.02-1.374.79-.135 2.92 1.244 2.127M144.29 110.372c-1.02.192-2.06.529-3.102.525-2.8.516-10.259-1.194-11.019-1.544-.715.434-.97 1.665.002 2.198 4.13 2.265 11.506 2.646 15.432-.4.607-.47.79-.737.475-1.25-.573.208-1.17.354-1.789.47"/>
        <path fill="#030303" d="M134.768 113.706c.488 1.09 1.389 1.762 2.602 1.84 1.188.077 2.45-.03 3.407-.85 1.201-1.03.728-2.893-.764-2.343-.4.148-2.611 1.238-2.902.59-.274-.613-.87-1.005-1.554-.79-.583.184-1.061.947-.79 1.553M177.99 109.698c-2.029 1.508-10.681 1.044-11.858.76-.957-.234-1.89-.52-2.768-.939-.42.546-.186 1.297.587 1.742 4.082 2.35 11.372 3.481 15.36.518 1.265-.94-.043-3.03-1.32-2.08"/>
        <path fill="#030303" d="M168.296 113.584c.448 1.106 1.324 1.81 2.534 1.932 1.184.12 2.417-.027 3.436-.726 1.304-.895.831-2.865-.68-2.369-.404.133-2.653 1.142-2.92.484-.252-.622-.834-1.035-1.525-.845-.59.162-1.095.907-.845 1.524"/>
        <g>
            <path fill="#000" d="M3.614 342.896h307.972a3.607 3.607 0 0 0 3.614-3.6c0-1.987-1.618-3.599-3.614-3.599H3.614a3.606 3.606 0 0 0-3.614 3.6c0 1.987 1.618 3.599 3.614 3.599"/>
            <path fill="#FFF" d="M30.33 283.698l3.286 1.309c.824.328 1.805-.359 2.02-1.143.258-.932-.32-1.683-1.147-2.012l-3.285-1.309c-.824-.328-1.805.358-2.02 1.143-.258.932.32 1.683 1.146 2.012M36.51 288.768c1.532 1.091 3.066 2.182 4.6 3.272.721.514 1.828.127 2.246-.587.483-.821.135-1.723-.588-2.238l-4.6-3.272c-.723-.514-1.829-.127-2.248.587-.483.822-.135 1.723.59 2.238M46.612 295.136a9.045 9.045 0 0 0 4.098 2.266c2.053.503 2.93-2.652.874-3.155-1.015-.248-1.891-.703-2.648-1.425-1.528-1.457-3.854.854-2.324 2.314M54.858 301.304l3.958 1.934c.795.39 1.776.214 2.247-.587.423-.72.21-1.847-.59-2.238l-3.956-1.934c-.796-.39-1.778-.215-2.248.587-.423.72-.21 1.847.59 2.238M283.109 284.228l-3.286 1.31c-.824.328-1.804-.36-2.02-1.143-.258-.933.32-1.683 1.147-2.013l3.285-1.308c.824-.329 1.805.358 2.021 1.142.258.932-.32 1.683-1.147 2.012M276.93 289.299c-1.533 1.09-3.067 2.18-4.6 3.272-.722.513-1.829.126-2.247-.587-.483-.822-.135-1.723.588-2.238l4.6-3.272c.723-.515 1.829-.127 2.248.587.483.822.135 1.723-.59 2.238M266.827 295.666a9.045 9.045 0 0 1-4.098 2.266c-2.053.503-2.93-2.652-.874-3.154 1.015-.249 1.892-.703 2.649-1.426 1.527-1.456 3.854.854 2.323 2.314M258.58 301.834l-3.957 1.935c-.795.389-1.776.214-2.247-.587-.423-.72-.21-1.848.59-2.238 1.318-.646 2.637-1.29 3.956-1.935.796-.39 1.778-.214 2.248.587.423.72.21 1.848-.59 2.238"/>
        </g>
    </g>
</svg>
